<svg width="64" height="64" viewBox="-5 58 128 128" xmlns="http://www.w3.org/2000/svg">
  <path d="M0 63.5954C0 63.4149 0.146326 63.2686 0.326829 63.2686H116.785C117.498 63.2686 117.982 63.9945 117.708 64.6532L104.787 95.6629C104.632 96.0355 104.268 96.2783 103.864 96.2783H32.6829C14.6326 96.2783 0 81.6456 0 63.5954Z" fill="#D71E28"/>
  <path d="M11.0032 104.858C11.0032 104.677 11.1495 104.531 11.33 104.531H100.28C100.993 104.531 101.477 105.257 101.203 105.915L88.222 137.07C88.1032 137.355 87.8246 137.54 87.5157 137.54H43.686C25.6358 137.54 11.0032 122.908 11.0032 104.858Z" fill="#D71E28"/>
  <path d="M30.2588 146.109C30.2588 145.934 30.4004 145.793 30.5751 145.793H83.7623C84.4792 145.793 84.9632 146.525 84.6824 147.185L71.9059 177.193C71.845 177.336 71.7068 177.43 71.5514 177.436L62.9343 177.721C45.0657 178.312 30.2588 163.988 30.2588 146.109Z" fill="#D71E28"/>
</svg>
