<svg width="683" height="311" viewBox="0 0 683 311" fill="none" xmlns="http://www.w3.org/2000/svg">
<path d="M506.568 143.859L538.267 97.5193C525.339 76.2518 502.254 63.2686 477.366 63.2686H455.632C454.837 63.2686 454.36 64.1514 454.795 64.8165L506.568 143.859ZM647.574 241.507C648.378 241.507 648.853 240.606 648.399 239.942L592.654 158.499L560.821 206.853C573.738 228.354 596.984 241.507 622.067 241.507H647.574Z" fill="#D71E28"/>
<path d="M671.554 -3.05176e-05C638.231 -3.05176e-05 607.097 16.5989 588.525 44.2668L452.178 247.391C451.732 248.055 452.208 248.948 453.008 248.948H514.67C515.002 248.948 515.313 248.783 515.499 248.507L681.929 1.55884C682.377 0.894638 681.901 -3.05176e-05 681.1 -3.05176e-05H671.554Z" fill="#D71E28"/>
<path d="M360.248 241.507C325.585 241.507 294.637 219.791 282.846 187.195L238.424 64.386C238.228 63.8424 238.63 63.2686 239.208 63.2686C274.754 63.2686 306.391 85.8019 318.01 119.394L360.248 241.507ZM373.003 236.134L346.378 157.999C346.31 157.8 346.307 157.585 346.368 157.385L374.802 63.9773C374.93 63.5563 375.319 63.2686 375.759 63.2686H433.236C433.927 63.2686 434.41 63.9533 434.178 64.6045L373.003 236.134Z" fill="#D71E28"/>
<path d="M121.766 241.507H123.26L180.364 241.507C180.985 241.507 181.456 240.947 181.35 240.336L174.047 198.323C173.963 197.844 173.548 197.494 173.061 197.494L143.096 197.494C142.402 197.494 141.919 196.803 142.157 196.151L190.18 64.6115C190.419 63.9591 189.936 63.2686 189.241 63.2686L133.458 63.2686C133.049 63.2686 132.681 63.518 132.529 63.8983L66.0966 230.545C64.0023 235.798 67.8722 241.507 73.5279 241.507H121.766ZM264.844 241.507C265.542 241.507 266.025 240.81 265.78 240.157L202.619 71.3276L176.293 142.113L208.706 240.819C208.841 241.229 209.224 241.507 209.657 241.507H264.844Z" fill="#D71E28"/>
<path d="M0 63.5954C0 63.4149 0.146326 63.2686 0.326829 63.2686H116.785C117.498 63.2686 117.982 63.9945 117.708 64.6532L104.787 95.6629C104.632 96.0355 104.268 96.2783 103.864 96.2783H32.6829C14.6326 96.2783 0 81.6456 0 63.5954Z" fill="#D71E28"/>
<path d="M11.0032 104.858C11.0032 104.677 11.1495 104.531 11.33 104.531H100.28C100.993 104.531 101.477 105.257 101.203 105.915L88.222 137.07C88.1032 137.355 87.8246 137.54 87.5157 137.54H43.686C25.6358 137.54 11.0032 122.908 11.0032 104.858Z" fill="#D71E28"/>
<path d="M30.2588 146.109C30.2588 145.934 30.4004 145.793 30.5751 145.793H83.7623C84.4792 145.793 84.9632 146.525 84.6824 147.185L71.9059 177.193C71.845 177.336 71.7068 177.43 71.5514 177.436L62.9343 177.721C45.0657 178.312 30.2588 163.988 30.2588 146.109Z" fill="#D71E28"/>
<path d="M631.913 311C629.822 311 627.823 310.78 625.916 310.34C624.009 309.863 622.322 309.148 620.855 308.194C619.388 307.204 618.232 305.993 617.389 304.563C616.545 303.096 616.123 301.372 616.123 299.392C616.123 299.171 616.123 298.951 616.123 298.731C616.16 298.511 616.178 298.346 616.178 298.236H623.385C623.385 298.31 623.367 298.456 623.33 298.676C623.33 298.86 623.33 299.025 623.33 299.171C623.33 300.382 623.679 301.427 624.376 302.307C625.073 303.151 626.081 303.811 627.402 304.288C628.722 304.728 630.281 304.948 632.078 304.948C633.288 304.948 634.352 304.875 635.269 304.728C636.223 304.581 637.029 304.38 637.69 304.123C638.387 303.83 638.955 303.499 639.395 303.133C639.835 302.729 640.147 302.289 640.33 301.812C640.55 301.335 640.661 300.822 640.661 300.272C640.661 299.208 640.33 298.328 639.67 297.631C639.01 296.934 638.111 296.347 636.974 295.871C635.874 295.394 634.609 294.972 633.178 294.605C631.785 294.202 630.336 293.798 628.832 293.395C627.365 292.991 625.916 292.515 624.486 291.964C623.092 291.378 621.827 290.681 620.69 289.874C619.589 289.067 618.709 288.058 618.049 286.848C617.389 285.601 617.059 284.115 617.059 282.392C617.059 280.631 617.425 279.091 618.159 277.77C618.929 276.45 619.993 275.368 621.35 274.524C622.744 273.644 624.357 273.002 626.191 272.599C628.025 272.159 630.024 271.938 632.188 271.938C634.205 271.938 636.094 272.159 637.855 272.599C639.652 273.002 641.229 273.662 642.586 274.579C643.943 275.46 645.007 276.597 645.777 277.99C646.547 279.347 646.932 280.979 646.932 282.887V283.547H639.835V282.997C639.835 281.933 639.505 281.034 638.845 280.301C638.221 279.567 637.323 278.999 636.149 278.595C635.012 278.192 633.673 277.99 632.133 277.99C630.483 277.99 629.07 278.155 627.897 278.485C626.723 278.779 625.824 279.237 625.201 279.861C624.577 280.448 624.266 281.181 624.266 282.061C624.266 282.978 624.596 283.749 625.256 284.372C625.916 284.996 626.796 285.527 627.897 285.968C629.034 286.408 630.299 286.811 631.693 287.178C633.123 287.545 634.572 287.948 636.039 288.388C637.543 288.792 638.992 289.269 640.385 289.819C641.816 290.369 643.081 291.066 644.182 291.909C645.319 292.716 646.217 293.725 646.877 294.935C647.538 296.146 647.868 297.594 647.868 299.282C647.868 302.106 647.171 304.38 645.777 306.104C644.42 307.827 642.531 309.074 640.11 309.845C637.726 310.615 634.994 311 631.913 311Z" fill="#0070C5"/>
<path d="M541.301 311C539.211 311 537.212 310.78 535.305 310.34C533.397 309.863 531.71 309.148 530.243 308.194C528.776 307.204 527.621 305.993 526.777 304.563C525.934 303.096 525.512 301.372 525.512 299.392C525.512 299.171 525.512 298.951 525.512 298.731C525.548 298.511 525.567 298.346 525.567 298.236H532.774C532.774 298.31 532.756 298.456 532.719 298.676C532.719 298.86 532.719 299.025 532.719 299.171C532.719 300.382 533.067 301.427 533.764 302.307C534.461 303.151 535.47 303.811 536.79 304.288C538.11 304.728 539.669 304.948 541.466 304.948C542.677 304.948 543.74 304.875 544.657 304.728C545.611 304.581 546.418 304.38 547.078 304.123C547.775 303.83 548.343 303.499 548.784 303.133C549.224 302.729 549.535 302.289 549.719 301.812C549.939 301.335 550.049 300.822 550.049 300.272C550.049 299.208 549.719 298.328 549.059 297.631C548.398 296.934 547.5 296.347 546.363 295.871C545.263 295.394 543.997 294.972 542.567 294.605C541.173 294.202 539.724 293.798 538.22 293.395C536.753 292.991 535.305 292.515 533.874 291.964C532.48 291.378 531.215 290.681 530.078 289.874C528.978 289.067 528.098 288.058 527.437 286.848C526.777 285.601 526.447 284.115 526.447 282.392C526.447 280.631 526.814 279.091 527.547 277.77C528.318 276.45 529.381 275.368 530.738 274.524C532.132 273.644 533.746 273.002 535.58 272.599C537.414 272.159 539.413 271.938 541.576 271.938C543.594 271.938 545.483 272.159 547.243 272.599C549.04 273.002 550.617 273.662 551.975 274.579C553.332 275.46 554.395 276.597 555.165 277.99C555.936 279.347 556.321 280.979 556.321 282.887V283.547H549.224V282.997C549.224 281.933 548.894 281.034 548.233 280.301C547.61 279.567 546.711 278.999 545.538 278.595C544.401 278.192 543.062 277.99 541.521 277.99C539.871 277.99 538.459 278.155 537.285 278.485C536.111 278.779 535.213 279.237 534.589 279.861C533.966 280.448 533.654 281.181 533.654 282.061C533.654 282.978 533.984 283.749 534.644 284.372C535.305 284.996 536.185 285.527 537.285 285.968C538.422 286.408 539.688 286.811 541.081 287.178C542.512 287.545 543.96 287.948 545.428 288.388C546.931 288.792 548.38 289.269 549.774 289.819C551.204 290.369 552.47 291.066 553.57 291.909C554.707 292.716 555.606 293.725 556.266 294.935C556.926 296.146 557.256 297.594 557.256 299.282C557.256 302.106 556.559 304.38 555.165 306.104C553.808 307.827 551.919 309.074 549.499 309.845C547.115 310.615 544.382 311 541.301 311Z" fill="#0070C5"/>
<path d="M436.337 310.34V272.599H465.771V278.706H443.489V288.003H463.35V294.11H443.489V304.233H466.101V310.34H436.337Z" fill="#0070C5"/>
<path d="M342.987 310.34V272.599H362.847C365.635 272.599 367.946 273.076 369.779 274.029C371.613 274.983 372.989 276.34 373.906 278.1C374.823 279.861 375.281 281.933 375.281 284.317C375.281 286.775 374.731 288.957 373.631 290.864C372.53 292.735 370.916 294.147 368.789 295.1L376.601 310.34H368.789L361.857 296.311H350.139V310.34H342.987ZM350.139 290.314H362.297C364.131 290.314 365.543 289.782 366.534 288.718C367.524 287.655 368.019 286.188 368.019 284.317C368.019 283.107 367.799 282.098 367.359 281.291C366.919 280.448 366.277 279.806 365.433 279.366C364.59 278.926 363.544 278.706 362.297 278.706H350.139V290.314Z" fill="#0070C5"/>
<path d="M252.214 310.34V272.599H271.139C273.927 272.599 276.219 273.094 278.016 274.084C279.85 275.074 281.226 276.468 282.143 278.265C283.06 280.063 283.518 282.208 283.518 284.702C283.518 287.16 283.041 289.305 282.088 291.139C281.134 292.973 279.704 294.403 277.796 295.43C275.926 296.421 273.578 296.916 270.754 296.916H259.366V310.34H252.214ZM259.366 290.809H270.534C272.368 290.809 273.78 290.277 274.771 289.214C275.797 288.113 276.311 286.61 276.311 284.702C276.311 283.419 276.091 282.337 275.651 281.456C275.211 280.576 274.569 279.898 273.725 279.421C272.882 278.944 271.818 278.706 270.534 278.706H259.366V290.809Z" fill="#0070C5"/>
<path d="M157.006 310.34L170.595 290.534L158.271 272.599H167.019L175.382 285.197H175.657L184.019 272.599H192.216L179.893 290.479L193.537 310.34H184.844L175.161 295.761H174.831L165.259 310.34H157.006Z" fill="#0070C5"/>
<path d="M69.7024 310.34V272.599H99.136V278.706H76.8545V288.003H96.7153V294.11H76.8545V304.233H99.4661V310.34H69.7024Z" fill="#0070C5"/>
</svg>
