<svg width="69" height="69" viewBox="0 0 69 69" fill="none" xmlns="http://www.w3.org/2000/svg">
<g clip-path="url(#clip0_2004_57)">
<path d="M69 0H23.0012C10.2959 0 0 10.2546 0 22.909H45.7209V46.091L68.9963 22.909V0H69Z" fill="url(#paint0_linear_2004_57)"></path>
<path d="M23.2754 22.909L0 46.091V69H45.9988C58.7005 69 69 58.7454 69 46.091H23.2754V22.909Z" fill="url(#paint1_linear_2004_57)"></path>
<g opacity="0.15">
<path d="M69 22.909L45.7209 46.091V22.909H69Z" fill="black"></path>
<path d="M23.2754 46.091V22.909L0 46.091H23.2754Z" fill="black"></path>
</g>
<path opacity="0.4" d="M68.4443 23.4588L69 22.909H45.7209V23.4588H68.4443Z" fill="black"></path>
<path opacity="0.1" d="M45.7209 23.4588V24.0123H67.8922L68.4443 23.4588H45.7209Z" fill="black"></path>
<path opacity="0.4" d="M0.555744 45.5375L0 46.091H23.2754V45.5375H0.555744Z" fill="black"></path>
<path opacity="0.1" d="M23.2754 45.5375V44.9877H1.10783L0.555744 45.5375H23.2754Z" fill="black"></path>
</g>
<defs>
<linearGradient id="paint0_linear_2004_57" x1="56.7988" y1="20.5161" x2="20.877" y2="44.5327" gradientUnits="userSpaceOnUse">
<stop stop-color="#CCD32A"></stop>
<stop offset="0.845" stop-color="#029ECB"></stop>
</linearGradient>
<linearGradient id="paint1_linear_2004_57" x1="56.7988" y1="43.4251" x2="20.877" y2="67.4417" gradientUnits="userSpaceOnUse">
<stop stop-color="#CCD32A"></stop>
<stop offset="0.845" stop-color="#029ECB"></stop>
</linearGradient>
<clipPath id="clip0_2004_57">
<rect width="69" height="69" fill="white"></rect>
</clipPath>
</defs>
</svg>